<svg xmlns="http://www.w3.org/2000/svg" width="10rem" height="10rem" viewBox="0 0 26 26" fill="none"><ellipse cx="12.9775" cy="13.0337" rx="2.15853" ry="2.15294" fill="url(#paint0_linear_605_11411)"/><path d="M15.9243 21.1287L15.9243 25.9962L10.3496 25.9962L10.3496 19.7396L5.72101 24.0567L2.18852 20.5334L6.76836 15.7707L-3.71359e-05 15.7707L-3.76058e-05 10.4089L5.17668 10.4089L15.9243 21.1287Z" fill="url(#paint1_linear_605_11411)"/><path d="M21.1702 10.2742L25.9999 10.2742L25.9999 15.7793L19.7918 15.7793L24.0754 20.3503L20.5794 23.8387L15.8537 19.316L15.8537 26L10.5336 26L10.5336 20.8878L21.1702 10.2742Z" fill="url(#paint2_linear_605_11411)" fill-opacity="0.9"/><path d="M4.88015 15.8831L0 15.8831L6.63047e-08 10.3229L6.27288 10.3229L1.94455 5.70627L5.47704 2.18294L10.2521 6.75092L10.2521 5.16207e-05L15.6278 5.16848e-05L15.6278 5.16336L4.88015 15.8831Z" fill="url(#paint3_linear_605_11411)"/><path d="M10.0757 4.86751V0H15.6504V6.25662L20.279 1.93952L23.8115 5.46285L19.2316 10.2255H26V15.5873H20.8233L10.0757 4.86751Z" fill="url(#paint4_linear_605_11411)" fill-opacity="0.8"/><defs><linearGradient id="paint0_linear_605_11411" x1="11.3191" y1="11.6654" x2="15.1313" y2="13.9709" gradientUnits="userSpaceOnUse"><stop stop-color="#0B75FE"/><stop offset="1" stop-color="#EFC2E4"/></linearGradient><linearGradient id="paint1_linear_605_11411" x1="11.2544" y1="14.1644" x2="1.65409" y2="20.0651" gradientUnits="userSpaceOnUse"><stop offset="0.469205" stop-color="#1C73FE"/><stop offset="1" stop-color="#158EFF"/></linearGradient><linearGradient id="paint2_linear_605_11411" x1="18.2667" y1="10.2742" x2="18.2667" y2="26" gradientUnits="userSpaceOnUse"><stop stop-color="#C3B2F7"/><stop offset="1" stop-color="#6181FB"/></linearGradient><linearGradient id="paint3_linear_605_11411" x1="7.81388" y1="5.15916e-05" x2="7.81388" y2="15.8831" gradientUnits="userSpaceOnUse"><stop stop-color="#608EFE"/><stop offset="1" stop-color="#AADFFF" stop-opacity="0.8"/></linearGradient><linearGradient id="paint4_linear_605_11411" x1="16.3867" y1="10.8112" x2="18.0286" y2="0.00624472" gradientUnits="userSpaceOnUse"><stop stop-color="#618CFB"/><stop offset="1" stop-color="#50C4FF"/></linearGradient><linearGradient id="paint5_linear_605_11411" x1="34" y1="0" x2="143.758" y2="14.7944" gradientUnits="userSpaceOnUse"><stop stop-color="#608EFE"/><stop offset="0.64" stop-color="#9568FF"/></linearGradient></defs></svg>