<svg fill="none" height="25" width="125" xmlns="http://www.w3.org/2000/svg" xmlns:xlink="http://www.w3.org/1999/xlink"><linearGradient id="a" gradientUnits="userSpaceOnUse" x1="10.448" x2="13.967" y1="10.768" y2="12.896"><stop offset="0" stop-color="#0b75fe"/><stop offset="1" stop-color="#efc2e4"/></linearGradient><linearGradient id="b" gradientUnits="userSpaceOnUse" x1="10.389" x2="1.527" y1="13.075" y2="18.522"><stop offset=".469" stop-color="#1c73fe"/><stop offset="1" stop-color="#158eff"/></linearGradient><linearGradient id="c" gradientUnits="userSpaceOnUse" x1="16.862" x2="16.862" y1="9.484" y2="24"><stop offset="0" stop-color="#c3b2f7"/><stop offset="1" stop-color="#6181fb"/></linearGradient><linearGradient id="d" gradientUnits="userSpaceOnUse" x1="7.213" x2="7.213" y2="14.661"><stop offset="0" stop-color="#608efe"/><stop offset="1" stop-color="#aadfff" stop-opacity=".8"/></linearGradient><linearGradient id="e" gradientUnits="userSpaceOnUse" x1="15.126" x2="16.642" y1="9.98" y2=".006"><stop offset="0" stop-color="#618cfb"/><stop offset="1" stop-color="#50c4ff"/></linearGradient><ellipse cx="11.979" cy="12.031" fill="url(#a)" rx="1.992" ry="1.987"/><path d="m14.7 19.503v4.494h-5.147v-5.777l-4.273 3.986-3.26-3.252 4.227-4.396h-6.247v-4.95h4.778l9.921 9.895z" fill="url(#b)"/><path d="m19.542 9.484h4.458v5.082h-5.73l3.954 4.219-3.228 3.22-4.362-4.175v6.17h-4.91v-4.719z" fill="url(#c)" fill-opacity=".9"/><path d="m4.505 14.661h-4.505v-5.131h5.79l-3.995-4.263 3.26-3.252 4.408 4.217v-6.232h4.963v4.766z" fill="url(#d)"/><path d="m9.3 4.493v-4.493h5.146v5.775l4.274-3.985 3.26 3.253-4.227 4.396h6.247v4.95h-4.779l-9.92-9.896z" fill="url(#e)" fill-opacity=".8"/><path d="m34.089 20v-16.8h10.8v2.88h-7.632v4.008h6.96v2.88h-6.96v4.152h7.776v2.88zm13.385 0v-11.904h2.976v1.56h.432c.192-.416.552-.808 1.08-1.176.528-.384 1.328-.576 2.4-.576.928 0 1.736.216 2.424.648.704.416 1.248 1 1.632 1.752.384.736.576 1.6.576 2.592v7.104h-3.024v-6.864c0-.896-.224-1.568-.672-2.016-.432-.448-1.056-.672-1.872-.672-.928 0-1.648.312-2.16.936-.512.608-.768 1.464-.768 2.568v6.048zm20.213.336c-1.184 0-2.232-.248-3.144-.744a5.53 5.53 0 0 1 -2.112-2.136c-.496-.928-.744-2.016-.744-3.264v-.288c0-1.248.248-2.328.744-3.24a5.168 5.168 0 0 1 2.088-2.136c.896-.512 1.936-.768 3.12-.768 1.168 0 2.184.264 3.048.792a5.26 5.26 0 0 1 2.016 2.16c.48.912.72 1.976.72 3.192v1.032h-8.663c.032.816.336 1.48.912 1.992s1.28.768 2.112.768c.848 0 1.472-.184 1.872-.552s.704-.776.912-1.224l2.472 1.296c-.224.416-.552.872-.984 1.368-.416.48-.976.896-1.68 1.248-.704.336-1.6.504-2.688.504zm-2.904-7.656h5.568c-.064-.688-.344-1.24-.84-1.656-.48-.416-1.112-.624-1.896-.624-.816 0-1.464.208-1.944.624s-.776.968-.888 1.656zm10.756 1.416v-.384c0-1.248.248-2.312.744-3.192.496-.896 1.152-1.576 1.968-2.04a5.334 5.334 0 0 1 2.712-.72c1.088 0 1.912.192 2.472.576s.968.784 1.224 1.2h.432v-1.44h2.976v14.016c0 .816-.24 1.464-.72 1.944-.48.496-1.12.744-1.92.744h-7.968v-2.64h6.912c.448 0 .672-.24.672-.72v-3.096h-.432c-.16.256-.384.52-.672.792-.288.256-.672.472-1.152.648s-1.088.264-1.824.264c-.976 0-1.88-.232-2.712-.696-.816-.48-1.472-1.16-1.968-2.04-.496-.896-.744-1.968-.744-3.216zm6.288 3.312c.928 0 1.704-.296 2.328-.888s.936-1.424.936-2.496v-.24c0-1.088-.312-1.92-.936-2.496-.608-.592-1.384-.888-2.328-.888-.928 0-1.704.296-2.328.888-.624.576-.936 1.408-.936 2.496v.24c0 1.072.312 1.904.936 2.496s1.4.888 2.328.888zm9.592 2.592v-11.904h2.976v1.296h.432c.208-.4.552-.744 1.032-1.032.48-.304 1.112-.456 1.896-.456.848 0 1.528.168 2.04.504.512.32.904.744 1.176 1.272h.432a3.508 3.508 0 0 1 1.152-1.272c.496-.336 1.2-.504 2.112-.504.736 0 1.4.16 1.992.48.608.304 1.088.776 1.44 1.416.368.624.552 1.416.552 2.376v7.824h-3.024v-7.608c0-.656-.168-1.144-.504-1.464-.336-.336-.808-.504-1.416-.504-.688 0-1.224.224-1.608.672-.368.432-.552 1.056-.552 1.872v7.032h-3.024v-7.608c0-.656-.168-1.144-.504-1.464-.336-.336-.808-.504-1.416-.504-.688 0-1.224.224-1.608.672-.368.432-.552 1.056-.552 1.872v7.032h-3.023zm24.181.336c-.848 0-1.608-.144-2.28-.432a3.91 3.91 0 0 1 -1.608-1.296c-.384-.576-.576-1.272-.576-2.088s.192-1.496.576-2.04c.4-.56.944-.976 1.632-1.248.704-.288 1.504-.432 2.4-.432h3.264v-.672c0-.56-.176-1.016-.528-1.368-.352-.368-.912-.552-1.68-.552-.752 0-1.312.176-1.68.528-.368.336-.608.776-.72 1.32l-2.784-.936c.192-.608.496-1.16.912-1.656.432-.512 1-.92 1.704-1.224.72-.32 1.592-.48 2.616-.48 1.568 0 2.808.392 3.72 1.176s1.368 1.92 1.368 3.408v4.44c0 .48.224.72.672.72h.96v2.496h-2.016c-.592 0-1.08-.144-1.464-.432a1.368 1.368 0 0 1 -.576-1.152v-.024h-.456c-.064.192-.208.448-.432.768-.224.304-.576.576-1.056.816s-1.136.36-1.968.36zm.528-2.448c.848 0 1.536-.232 2.064-.696.544-.48.816-1.112.816-1.896v-.24h-3.048c-.56 0-1 .12-1.32.36s-.48.576-.48 1.008.168.784.504 1.056.824.408 1.464.408z" fill="#FFF"/></svg>